<?xml version="1.0" encoding="iso-8859-1"?>
<!-- Generator: Adobe Illustrator 27.0.0, SVG Export Plug-In . SVG Version: 6.00 Build 0)  -->
<svg version="1.1" id="Layer_1" xmlns="http://www.w3.org/2000/svg" xmlns:xlink="http://www.w3.org/1999/xlink" x="0px" y="0px"
	 viewBox="0 0 500 500" style="enable-background:new 0 0 500 500;" xml:space="preserve">
<g>
</g>
<g>
	
		<linearGradient id="SVGID_1_" gradientUnits="userSpaceOnUse" x1="239.0498" y1="304.1123" x2="261.6274" y2="171.9124" gradientTransform="matrix(1 0 0 -1 0 502)">
		<stop  offset="0" style="stop-color:#FF3269"/>
		<stop  offset="1" style="stop-color:#FF794D"/>
	</linearGradient>
	<path style="fill-rule:evenodd;clip-rule:evenodd;fill:url(#SVGID_1_);" d="M310.366,209.057c-0.008-1.176,0.214-2.343,0.661-3.431
		c0.447-1.088,1.103-2.077,1.937-2.907c0.831-0.831,1.822-1.487,2.909-1.93c1.089-0.443,2.255-0.665,3.43-0.652h6.292V187.01
		c-0.198-1.379-0.096-2.784,0.299-4.12c0.392-1.336,1.067-2.572,1.981-3.624c0.911-1.052,2.039-1.896,3.304-2.474
		c1.265-0.578,2.642-0.877,4.034-0.877c1.391,0,2.766,0.299,4.034,0.877c1.265,0.578,2.393,1.422,3.304,2.474
		c0.911,1.052,1.589,2.288,1.981,3.624c0.392,1.336,0.494,2.741,0.299,4.12v13.127h20.45c1.174-0.013,2.341,0.209,3.43,0.652
		c1.087,0.443,2.077,1.1,2.909,1.93c0.831,0.831,1.49,1.819,1.937,2.907c0.445,1.089,0.67,2.255,0.661,3.431
		c-0.014,2.366-0.96,4.632-2.634,6.302c-1.674,1.671-3.94,2.612-6.303,2.618h-20.45v31.601c0,15.412,8.572,23.287,20.45,23.287
		c2.387,0,4.681,0.95,6.371,2.642c1.688,1.691,2.637,3.985,2.637,6.377c0,2.392-0.949,4.686-2.637,6.377
		c-1.69,1.691-3.984,2.641-6.371,2.641c-22.563,0-39.685-15.922-39.685-41.324v-31.601h-6.292c-2.363-0.006-4.629-0.947-6.303-2.618
		C311.326,213.689,310.379,211.424,310.366,209.057z M111.759,245.695c0.07-8.832,2.633-17.463,7.391-24.888
		c4.758-7.425,11.515-13.339,19.485-17.053c7.97-3.715,16.825-5.077,25.535-3.929c8.71,1.148,16.917,4.759,23.666,10.414
		c1.044,0.909,1.89,2.024,2.488,3.275c0.598,1.251,0.933,2.613,0.986,4c0.013,2.614-0.991,5.129-2.798,7.009l-26.726,31.989
		c-0.776,1.013-1.779,1.826-2.928,2.374c-1.149,0.548-2.41,0.815-3.681,0.779c-1.172,0.063-2.346-0.117-3.446-0.528
		c-1.101-0.412-2.105-1.047-2.951-1.866c-0.846-0.819-1.516-1.804-1.967-2.894c-0.451-1.09-0.675-2.262-0.656-3.443
		c-0.057-1.053,0.097-2.106,0.453-3.098c0.356-0.992,0.908-1.901,1.621-2.674l21.033-24.786c-3.444-2.122-7.418-3.216-11.457-3.153
		c-14.931,0-26.749,12.587-26.749,28.472s11.65,28.472,26.749,28.472c3.443,0.035,6.855-0.648,10.022-2.004
		c3.167-1.357,6.021-3.358,8.382-5.878c0.367-0.298,0.718-0.593,1.061-0.881l0.003-0.002l0.001-0.001
		c2.251-1.888,4.122-3.457,7.281-3.457c1.23-0.053,2.458,0.148,3.607,0.59c1.15,0.443,2.197,1.118,3.076,1.985
		c0.88,0.866,1.573,1.905,2.037,3.051c0.464,1.146,0.69,2.376,0.662,3.614c-0.178,2.357-1.167,4.579-2.798,6.281
		c-4.171,4.716-9.314,8.461-15.071,10.974c-5.757,2.513-11.99,3.734-18.264,3.577c-6.075,0.095-12.107-1.038-17.738-3.333
		c-5.631-2.295-10.746-5.703-15.041-10.024c-4.295-4.321-7.683-9.465-9.962-15.128C112.785,257.869,111.661,251.804,111.759,245.695
		z M74.516,218.848H35.936c-2.356-0.013-4.612-0.96-6.279-2.636c-1.666-1.675-2.608-3.945-2.621-6.314
		c-0.013-1.179,0.208-2.349,0.651-3.441c0.443-1.092,1.098-2.083,1.927-2.917c0.829-0.834,1.815-1.492,2.901-1.938
		c1.086-0.445,2.249-0.668,3.421-0.655h57.784c1.172-0.013,2.335,0.209,3.421,0.655c1.085,0.445,2.072,1.104,2.901,1.938
		c0.829,0.834,1.484,1.826,1.927,2.917c0.443,1.092,0.664,2.262,0.651,3.441c-0.09,2.387-1.088,4.648-2.789,6.316l-46.97,56.382
		h40.859c1.172-0.013,2.335,0.21,3.421,0.655c1.085,0.445,2.072,1.104,2.901,1.938c0.829,0.834,1.484,1.826,1.927,2.917
		c0.443,1.092,0.664,2.261,0.651,3.44c-0.013,2.37-0.954,4.639-2.621,6.315c-1.666,1.675-3.922,2.623-6.279,2.635H33.9
		c-2.382-0.026-4.656-1-6.324-2.71c-1.668-1.71-2.594-4.015-2.575-6.411c0.062-2.367,0.995-4.626,2.619-6.341L74.516,218.848z
		 M230.892,315.728v-34.322c8.005,7.055,18.313,10.915,28.968,10.849c25.138,0,44.167-20.482,44.167-46.412
		c0-25.93-19.03-46.412-44.167-46.412c-10.69-0.096-21.027,3.836-28.968,11.019v-1.216c-0.329-2.319-1.482-4.442-3.245-5.977
		c-1.764-1.535-4.02-2.381-6.354-2.381c-2.335,0-4.591,0.845-6.354,2.381c-1.764,1.535-2.916,3.658-3.245,5.977v106.494
		c0.329,2.319,1.481,4.442,3.245,5.977c1.764,1.535,4.02,2.381,6.354,2.381c2.335,0,4.591-0.845,6.354-2.381
		C229.41,320.169,230.563,318.047,230.892,315.728z M257.775,217.285c15.005,0,26.883,12.26,26.883,28.557
		c0,16.297-11.878,28.557-26.883,28.557c-15.005,0-26.883-12.26-26.883-28.557v-1.241
		C231.425,229.034,242.77,217.285,257.775,217.285z M390.454,220.005c-5.073,7.613-7.782,16.565-7.782,25.721
		c-0.107,6.11,1.012,12.179,3.295,17.845c2.28,5.666,5.677,10.813,9.985,15.134c4.308,4.321,9.442,7.727,15.091,10.016
		c5.65,2.288,11.7,3.411,17.791,3.303c9.132,0,18.055-2.715,25.647-7.803s13.508-12.318,17.001-20.778
		c3.496-8.46,4.409-17.768,2.629-26.749c-1.781-8.981-6.179-17.23-12.636-23.705c-6.454-6.475-14.68-10.884-23.636-12.671
		c-8.953-1.786-18.236-0.87-26.671,2.635C402.736,206.457,395.525,212.391,390.454,220.005z M428.836,217.239
		c15.316,0,26.833,12.763,26.833,28.487c0,15.554-11.494,28.487-26.833,28.487s-26.83-12.763-26.83-28.487
		S413.522,217.239,428.836,217.239z"/>
</g>
</svg>
